<svg viewBox="0 0 1050.001 1045.334" xmlns="http://www.w3.org/2000/svg"><path d="M212.723 21.333h624.203c117.43.132 212.59 95.292 212.722 212.71V678.12c-.132 117.43-95.292 212.59-212.71 212.722H578.4l-311.87 154.49v-154.49h-53.808C95.292 890.71.132 795.55 0 678.132V234.055c.132-117.43 95.292-212.59 212.71-212.722h.013zM836.926 821.02c78.89-.08 142.822-64.01 142.9-142.893V234.055c-.078-78.89-64.01-142.822-142.892-142.9h-624.21c-78.89.078-142.822 64.01-142.9 142.892V678.12c.078 78.89 64.01 142.82 142.892 142.9H336.54v111.714L562.016 821.02z"/></svg>